<svg xmlns="http://www.w3.org/2000/svg" version="1.0" width="1974.000000pt" height="1973.000000pt" viewBox="0 0 1974.000000 1973.000000" preserveAspectRatio="xMidYMid meet">

<g transform="translate(0.000000,1973.000000) scale(0.100000,-0.100000)" fill="#f44336" stroke="none">
<path d="M7640 18272 c-579 -341 -998 -788 -1291 -1376 -54 -110 -99 -206 -99 -214 0 -10 -7 -12 -23 -8 -48 12 -275 46 -415 63 -207 24 -667 24 -842 -1 -480 -67 -866 -222 -1185 -476 -485 -387 -804 -998 -904 -1734 -6 -44 -13 -81 -15 -83 -2 -2 -47 -10 -100 -18 -933 -140 -1713 -741 -2074 -1598 -250 -593 -298 -1232 -137 -1845 281 -1069 1194 -1881 2302 -2047 242 -36 327 -37 2261 -30 l1892 8 0 324 0 325 -1887 -7 c-1417 -6 -1920 -5 -2018 4 -274 25 -544 100 -785 217 -229 111 -402 234 -586 418 -322 322 -523 711 -599 1166 -23 134 -30 400 -16 545 34 340 146 680 309 943 212 341 537 626 894 783 259 114 467 158 868 182 88 6 159 38 215 98 73 78 86 119 96 294 23 450 134 833 334 1154 367 590 1011 836 1925 735 159 -17 310 -43 509 -85 158 -34 209 -34 290 2 110 48 154 108 246 332 84 207 131 305 200 424 401 685 1063 1136 1980 1348 224 51 434 85 735 116 165 17 830 23 1010 10 967 -73 1741 -412 2365 -1036 568 -566 967 -1295 1231 -2248 60 -218 85 -278 141 -333 60 -60 134 -89 228 -89 77 0 84 2 195 57 135 67 213 92 370 119 470 82 1053 -15 1545 -256 784 -385 1271 -1096 1399 -2045 75 -556 32 -1059 -123 -1436 -290 -705 -997 -1135 -2133 -1299 -415 -59 -798 -74 -1924 -75 -413 0 -907 -3 -1097 -7 l-347 -6 0 -323 0 -323 413 4 c226 3 819 7 1317 10 898 5 1092 10 1410 41 1259 119 2161 531 2670 1219 259 349 411 747 476 1240 22 162 25 647 6 835 -53 522 -171 950 -374 1354 -434 867 -1238 1468 -2233 1671 -261 53 -435 68 -725 62 -186 -4 -275 -10 -370 -26 -114 -20 -217 -43 -253 -57 -11 -4 -26 32 -62 143 -412 1289 -1148 2281 -2118 2851 l-88 52 -2447 0 -2447 0 -115 -68z" fill="#f44336"/>
<path d="M6890 14859 c-16 -60 -13 -205 6 -269 46 -153 158 -288 294 -352 41 -20 83 -39 94 -42 18 -6 19 -32 12 -1024 l-7 -1017 715 -715 716 -715 0 -1326 c0 -729 -3 -1440 -7 -1581 l-6 -254 -61 -32 -62 -32 -265 0 -266 0 -6 302 c-4 166 -7 767 -7 1337 l0 1036 -739 740 -740 740 26 75 c21 60 26 95 26 170 1 194 -83 356 -240 463 -326 223 -767 68 -879 -308 -24 -80 -24 -220 0 -300 55 -188 205 -333 401 -391 123 -36 287 -19 409 43 l49 25 689 -689 688 -688 0 -976 c0 -537 -3 -1111 -7 -1277 l-6 -302 -3039 0 -3039 0 7 -22 c23 -78 200 -365 334 -543 450 -600 1072 -1085 1901 -1484 566 -272 931 -372 1924 -525 198 -31 403 -67 455 -81 562 -150 978 -498 1090 -910 89 -327 73 -701 -43 -989 -122 -305 -390 -547 -743 -669 -216 -75 -407 -106 -694 -113 -240 -6 -265 -9 -291 -35 -18 -18 -19 -39 -19 -664 l0 -645 243 0 c133 0 2003 -7 4156 -15 2153 -8 3916 -13 3918 -11 3 2 1 284 -3 626 -7 609 -7 622 -28 652 -37 55 -82 70 -239 79 -363 21 -601 75 -826 189 -352 177 -555 447 -643 854 -18 83 -22 135 -22 286 -1 172 1 193 28 295 91 351 291 663 619 963 749 686 2071 1193 3895 1492 99 16 120 36 132 120 5 36 10 309 10 608 l0 542 -2438 0 -2439 0 -6 302 c-4 166 -7 736 -7 1267 l0 966 683 683 683 683 80 -27 c199 -67 432 -13 584 136 108 107 164 241 164 395 0 190 -86 353 -241 458 -326 223 -767 68 -879 -308 -36 -123 -18 -295 42 -405 l25 -44 -726 -726 -725 -725 0 -1026 c0 -564 -3 -1161 -7 -1327 l-6 -302 -234 0 c-231 0 -235 0 -266 24 -18 13 -50 33 -73 44 l-41 21 -6 233 c-4 128 -7 843 -7 1588 l0 1355 746 746 745 746 -7 1051 c-7 1029 -7 1052 12 1058 10 3 53 22 94 42 168 80 310 285 310 449 l0 43 -145 0 -145 0 0 -32 c-1 -44 -30 -106 -71 -147 -135 -136 -381 -96 -460 74 -10 22 -19 55 -19 73 l0 32 -145 0 -145 0 0 -43 c0 -164 142 -369 310 -449 41 -20 84 -39 94 -42 19 -6 19 -27 12 -999 l-6 -992 -745 -745 -745 -745 0 -1415 c0 -778 -3 -1519 -7 -1646 l-6 -231 -33 -12 c-19 -7 -57 -28 -85 -47 l-51 -34 -237 0 -238 0 -6 302 c-4 166 -7 990 -7 1832 l0 1531 480 480 c264 264 480 483 480 488 0 4 0 194 0 423 l0 416 22 6 c13 3 57 23 99 44 57 28 94 56 147 112 86 91 129 175 149 296 13 76 13 97 0 172 -22 126 -64 207 -156 299 -119 120 -242 172 -406 172 -164 0 -287 -52 -406 -172 -92 -93 -135 -174 -156 -301 -29 -172 22 -333 149 -466 53 -56 90 -84 147 -112 42 -21 86 -41 99 -44 l22 -6 0 -359 0 -358 -408 -408 -407 -407 -388 388 -387 387 0 283 0 284 22 6 c58 15 178 85 226 133 102 100 152 197 172 334 38 269 -140 531 -415 610 -79 23 -221 23 -300 0 -156 -44 -300 -163 -365 -300 -130 -272 -18 -599 250 -734 41 -20 85 -40 98 -43 l22 -6 0 -353 -1 -353 451 -451 450 -450 0 -1536 c0 -845 -3 -1671 -7 -1837 l-6 -302 -246 0 -245 0 -62 32 -61 32 -6 254 c-4 141 -7 879 -7 1641 l0 1386 -714 715 -715 715 -7 957 c-7 935 -7 958 12 964 10 3 53 22 94 42 136 64 248 199 294 352 19 64 22 209 6 269 l-11 41 -158 0 -158 0 23 -47 c18 -35 24 -63 24 -115 0 -81 -15 -121 -67 -178 -109 -122 -307 -122 -416 0 -52 57 -67 97 -67 178 0 52 6 80 24 115 l23 47 -158 0 -158 0 -11 -41z m4020 -1100 c175 -79 216 -314 76 -436 -66 -58 -92 -68 -191 -68 -99 0 -125 10 -191 68 -82 71 -108 201 -60 302 48 101 135 155 251 155 49 0 84 -7 115 -21z m-1880 -190 c179 -81 216 -317 70 -442 -179 -153 -460 -32 -460 198 0 152 117 265 275 265 49 0 84 -7 115 -21z m-2863 -1422 c163 -85 204 -283 85 -418 -51 -58 -114 -84 -207 -84 -65 0 -89 5 -128 25 -209 106 -190 404 30 486 50 19 177 13 220 -9z m7490 0 c163 -85 204 -283 85 -418 -51 -58 -114 -84 -207 -84 -65 0 -89 5 -128 25 -209 106 -190 404 30 486 50 19 177 13 220 -9z" fill="#f44336"/>
</g>
</svg>